Coordinates
version=1
nRows=7
nColumns=40
inDegrees=yes
endheader
time	pelvis_tilt	pelvis_list	pelvis_rotation	pelvis_tx	pelvis_ty	pelvis_tz	hip_flexion_r	hip_adduction_r	hip_rotation_r	knee_angle_r	knee_angle_r_beta	ankle_angle_r	subtalar_angle_r	mtp_angle_r	hip_flexion_l	hip_adduction_l	hip_rotation_l	knee_angle_l	knee_angle_l_beta	ankle_angle_l	subtalar_angle_l	mtp_angle_l	lumbar_extension	lumbar_bending	lumbar_rotation	arm_flex_r	arm_add_r	arm_rot_r	elbow_flex_r	pro_sup_r	wrist_flex_r	wrist_dev_r	arm_flex_l	arm_add_l	arm_rot_l	elbow_flex_l	pro_sup_l	wrist_flex_l	wrist_dev_l
1760625089.97600007	      0.19004262	     -0.19764928	      1.61869210	     -0.03881944	      0.96310797	      0.01627352	     80.00000000	     -7.00000000	      0.00000000	     80.00000000	      1.39626340	      0.00000000	      0.00000000	      0.00000000	     80.00000000	     -7.00000000	      0.00000000	     80.00000000	      1.39626340	      0.00000000	      0.00000000	      0.00000000	      2.01906717	     -1.35949864	      0.49242427	     11.45463060	    -13.51654394	     11.92301320	     70.07001827	    161.20390922	     -9.81186468	     35.00000010	      5.41124701	     -8.72058632	    -11.10252383	     79.19642510	    130.03849534	      8.18586286	      6.59853451
1760625090.00900006	      0.18781206	     -0.19127695	      1.62238483	     -0.03854940	      0.96317251	      0.01620994	     80.00000000	     -7.00000000	      0.00000000	     80.00000000	      1.39626340	      0.00000000	      0.00000000	      0.00000000	     80.00000000	     -7.00000000	      0.00000000	     80.00000000	      1.39626340	      0.00000000	      0.00000000	      0.00000000	      2.13616342	     -1.39442612	      0.50475418	     11.35512539	    -13.50570292	     12.35104400	     69.27166524	    160.88647421	    -10.70247750	     35.00000010	      5.20838216	     -8.65025760	    -11.10877980	     79.19476500	    130.10200221	      8.13789631	      6.64782187
1760625090.04299998	      0.17988818	     -0.18261770	      1.62094609	     -0.04120186	      0.96252157	      0.01588184	     80.00000000	     -7.00000000	      0.00000000	     80.00000000	      1.39626340	      0.00000000	      0.00000000	      0.00000000	     80.00000000	     -7.00000000	      0.00000000	     80.00000000	      1.39626340	      0.00000000	      0.00000000	      0.00000000	      2.10453606	     -1.39293630	      0.51286366	     11.56320193	    -13.51907837	     12.90595157	     67.93055190	    160.54787962	    -11.92287625	     35.00000010	      5.24965867	     -8.59745727	    -11.06604028	     79.13906926	    130.03749938	      8.11072149	      6.60670824
1760625090.07599998	      0.17822963	     -0.17128042	      1.62861329	     -0.04189133	      0.96206809	      0.01620853	     80.00000000	     -7.00000000	      0.00000000	     80.00000000	      1.39626340	      0.00000000	      0.00000000	      0.00000000	     80.00000000	     -7.00000000	      0.00000000	     80.00000000	      1.39626340	      0.00000000	      0.00000000	      0.00000000	      2.10783840	     -1.44038374	      0.45646939	     11.61161149	    -13.52399703	     13.07572545	     68.03214105	    160.53873726	    -11.96761502	     35.00000010	      5.25451890	     -8.54586491	    -11.07991389	     79.17617230	    130.06902158	      8.14428900	      6.60289194
1760625090.10999990	      0.17841608	     -0.16229830	      1.63011803	     -0.04278428	      0.96146018	      0.01633436	     80.00000000	     -7.00000000	      0.00000000	     80.00000000	      1.39626340	      0.00000000	      0.00000000	      0.00000000	     80.00000000	     -7.00000000	      0.00000000	     80.00000000	      1.39626340	      0.00000000	      0.00000000	      0.00000000	      2.15879459	     -1.46948727	      0.46912174	     11.58615499	    -13.61864033	     13.41831714	     67.38139291	    160.29986906	    -12.73824175	     35.00000010	      5.17821407	     -8.52462381	    -10.97964620	     79.27637534	    130.08140353	      8.14805406	      6.57629626
1760625090.14299989	      0.17400316	     -0.15722735	      1.62896545	     -0.03908525	      0.96112462	      0.01661360	     80.00000000	     -7.00000000	      0.00000000	     80.00000000	      1.39626340	      0.00000000	      0.00000000	      0.00000000	     80.00000000	     -7.00000000	      0.00000000	     80.00000000	      1.39626340	      0.00000000	      0.00000000	      0.00000000	      2.38437605	     -1.50582024	      0.43536076	     11.32232352	    -13.61988200	     13.52679376	     67.48727397	    160.20622485	    -12.87849183	     35.00000010	      4.99057584	     -8.51841619	    -10.88302404	     79.33692003	    130.05206718	      8.14740751	      6.53748892
1760625090.17700005	      0.16026838	     -0.14809300	      1.62300258	     -0.03714491	      0.96058877	      0.01672528	     80.00000000	     -7.00000000	      0.00000000	     80.00000000	      1.39626340	      0.00000000	      0.00000000	      0.00000000	     80.00000000	     -7.00000000	      0.00000000	     80.00000000	      1.39626340	      0.00000000	      0.00000000	      0.00000000	      2.56391534	     -1.55295601	      0.48322895	     11.15103088	    -13.59632137	     13.68580934	     67.06722714	    159.96637678	    -13.46151558	     35.00000010	      4.88903642	     -8.45978668	    -10.65028955	     79.40426072	    129.99969562	      8.12678324	      6.50829391
